<svg width="2500" height="1000" viewBox="0 0 2500 1000" fill="none" xmlns="http://www.w3.org/2000/svg">
<g clip-path="url(#clip0_5_2)">
<path d="M618.269 332.434L676.829 479.557C678.901 484.782 678.901 490.584 676.829 495.81L618.269 642.933C611.713 659.389 595.816 670.179 578.085 670.179H441.093V653.96H469.184C494.728 653.96 517.69 638.386 527.133 614.668L574.212 496.115H473.634L415.176 642.967C408.62 659.423 392.723 670.213 374.992 670.213H238V653.994H265.921C291.465 653.994 314.427 638.42 323.836 614.702L371.085 495.844C373.158 490.652 373.158 484.85 371.085 479.625L323.938 360.8C314.529 337.048 291.567 321.474 265.989 321.474H238V305.221H374.992C392.689 305.221 408.62 316.011 415.176 332.468L473.634 479.319H574.212L527.065 360.732C517.656 337.014 494.694 321.44 469.15 321.44H441.093V305.221H578.085C595.782 305.221 611.713 316.011 618.269 332.468V332.434Z" fill="#9A0DFF"/>
<path d="M621.394 331.45L680.429 479.76C682.535 485.02 682.535 490.89 680.429 496.149L621.394 644.459C614.804 661.052 598.737 671.909 580.87 671.909H442.757V655.555H471.052C496.8 655.555 519.966 639.845 529.477 615.924L576.964 496.386H475.57L416.602 644.459C410.012 661.052 393.946 671.909 376.079 671.909H238V655.555H266.159C291.907 655.555 315.073 639.845 324.55 615.958L372.172 496.115C374.244 490.856 374.244 485.02 372.172 479.76L324.652 359.952C315.175 336.03 292.009 320.321 266.227 320.321H238V304H376.113C393.98 304 410.012 314.892 416.636 331.45L475.604 479.523H577.032L529.511 359.952C520 336.03 496.868 320.355 471.12 320.355H442.825V304H580.938C598.805 304 614.838 314.892 621.461 331.45H621.394Z" fill="#9A0DFF"/>
<g clip-path="url(#clip1_5_2)">
<path d="M618.268 332.434L676.829 479.557C678.901 484.782 678.901 490.584 676.829 495.81L618.268 642.933C611.713 659.389 595.816 670.179 578.085 670.179H441.093V653.96H469.184C494.728 653.96 517.69 638.386 527.133 614.668L574.212 496.115H473.634L415.176 642.966C408.62 659.423 392.723 670.213 374.992 670.213H238V653.994H265.921C291.465 653.994 314.427 638.42 323.836 614.702L371.085 495.843C373.158 490.652 373.158 484.85 371.085 479.625L323.938 360.8C314.529 337.048 291.567 321.474 265.989 321.474H238V305.221H374.992C392.689 305.221 408.62 316.011 415.176 332.468L473.634 479.319H574.212L527.065 360.732C517.656 337.014 494.694 321.44 469.15 321.44H441.093V305.221H578.085C595.782 305.221 611.713 316.011 618.268 332.468V332.434Z" fill="white"/>
<path d="M1557.99 473.008C1557.99 455.805 1542.94 440.774 1512.81 440.774C1459.38 440.774 1412.43 498.083 1412.43 551.795C1412.43 589.017 1435.74 615.89 1471.23 615.89C1490.87 615.89 1509.34 606.661 1524.15 589.662L1520.72 582.434C1510.67 589.526 1500.14 593.326 1489.17 593.326C1465.53 593.326 1447.59 573.646 1447.59 544.636C1447.59 541.412 1447.96 538.189 1448.3 534.592H1439L1440.08 527.806C1516.44 527.806 1558.05 498.422 1558.05 473.008H1557.99ZM1508.49 452.955C1521.4 452.955 1528.57 460.827 1528.57 472.296C1528.57 490.584 1516.75 510.603 1452.21 517.05C1463.32 480.88 1484.82 452.955 1508.49 452.955ZM855.091 497.947H867.999V574.936C867.999 591.426 876.593 600.01 893.441 601.436L901.695 602.148V612.531H796.293V602.148L804.547 601.436C821.395 600.01 829.989 591.426 829.989 574.936V399.481C829.989 383.024 821.395 374.406 804.547 372.981L796.293 372.268V361.886H901.695V372.268L893.441 372.981C876.593 374.406 867.999 383.024 867.999 399.481V478.268H985.969V399.481C985.969 383.024 977.375 374.406 960.527 372.981L952.273 372.268V361.886H1057.67V372.268L1049.42 372.981C1032.57 374.406 1023.98 383.024 1023.98 399.481V574.97C1023.98 591.46 1032.57 600.044 1049.42 601.469L1057.67 602.182V612.565H952.273V602.182L960.527 601.469C977.375 600.044 985.969 591.46 985.969 574.97V497.981H998.877V490.822H855.125V497.981L855.091 497.947ZM1131.69 610.427L1076.49 477.928C1070.41 463.236 1062.53 456.45 1048.88 453.227V444.269H1130.64V453.566L1125.27 454.279C1111.99 456.077 1107.34 464.661 1112.36 477.555L1146.06 563.874L1140.69 575.716L1144.63 583.249L1190.15 487.632C1199.46 468.292 1194.46 456.823 1176.9 454.312L1171.53 453.6V444.303H1239.3V453.261C1227.48 456.484 1218.14 465.442 1210.6 480.846L1126.7 653.824C1112.7 682.462 1094.77 696.068 1071.5 696.068C1054.99 696.068 1043.17 686.398 1042.46 672.418C1041.74 661.323 1049.28 652.365 1059.68 652.026C1069.7 651.653 1078.33 659.559 1078.33 669.568C1078.33 672.418 1076.9 676.015 1075.44 676.727H1071.13V682.089H1075.78C1091.54 682.089 1103.74 669.195 1119.16 636.588L1131.69 610.461V610.427ZM1359.34 441.385C1333.19 441.385 1302.68 470.396 1277.96 511.214H1276.53L1286.58 486.139L1304.52 461.438L1311.92 444.235H1246.06V453.261L1253.91 453.329C1260.56 453.396 1266.71 458.079 1267.49 464.661C1268.1 469.547 1266.85 475.383 1264.33 481.864L1195.48 660.916C1190.11 675.235 1181.49 683.48 1167.53 684.905L1160.36 685.617L1156.76 694.914H1244.6L1248.2 685.617L1240.66 684.905C1225.24 683.48 1222.38 675.608 1227.75 660.916L1251.77 598.619C1264.67 607.577 1282.24 612.938 1299.46 612.938C1353.6 612.938 1404.86 553.152 1404.86 495.47C1404.86 463.236 1387.64 441.385 1359.31 441.385H1359.34ZM1297.32 598.619C1282.27 598.619 1267.56 591.46 1258.97 580.331L1279.04 528.383C1305.94 481.457 1333.19 462.49 1349.66 462.49C1360.43 462.49 1371.16 470.735 1371.16 492.586C1371.16 536.289 1338.89 598.585 1297.32 598.585V598.619ZM1796 594.615H1813.93V612.531H1760.16V576.734H1742.23V558.819H1760.16V505.107H1778.1V487.191H1796.03V469.276H1813.97V451.361H1849.8V433.445H1885.64V451.361H1921.51V505.073H1903.57V540.869H1885.64V594.582H1903.57V612.497H1849.8V594.582H1831.87V576.666H1849.8V558.751H1867.74V505.039H1885.67V451.327H1849.84V469.242H1814V487.157H1796.07V540.869H1778.13V576.7H1796.07V594.615H1796ZM1903.57 594.615V576.7H1921.51V594.615H1903.57ZM1957.31 612.531H1921.47V594.615H1939.41V540.903H1957.34V505.107H1975.28V451.394H2011.11V469.31H2029.05V451.394H2064.89V433.479H2082.82V451.394H2100.76V505.107H2082.82V558.819H2064.89V594.649H2082.82V612.565H2029.05V558.853H2046.98V523.056H2064.92V469.344H2029.08V487.259H2011.15V505.174H1993.21V523.09H1975.28V576.802H1957.34V612.599L1957.31 612.531ZM2100.72 576.7V594.615H2082.79V576.7M2208.23 522.988H2172.39V505.073H2208.23V487.157H2226.16V451.327H2190.33V469.242H2172.39V487.157H2154.46V522.954H2136.52V558.751H2154.46V594.582H2208.23V612.497H2136.52V594.582H2118.59V576.666H2100.65V522.954H2118.59V487.157H2136.52V469.242H2154.46V451.327H2190.29V433.411H2226.13V451.327H2244.07V505.039H2208.2V522.954L2208.23 522.988ZM2226.13 594.615H2208.2V576.7H2226.13V594.615ZM2244.1 558.785V576.666H2262V558.785H2244.1ZM2244 522.954H2226.1V540.835H2244V522.954ZM2154.46 433.445H2136.56V451.327H2154.46V433.445ZM1610.77 499.067H1623.31V486.547H1610.77V499.067ZM1598.24 486.547H1610.77V474.026H1623.31V448.951H1635.84V436.431H1610.74V448.951H1573.1V461.472H1579.96C1588.62 461.472 1591.51 468.428 1586.45 481.355L1535.46 612.259H1567.43L1595.42 540.293C1595.42 540.293 1602.48 520.036 1610.74 511.587V499.067H1598.2V486.547H1598.24ZM1686.08 448.918V436.397H1673.54V448.918H1648.44V461.438H1660.98V486.513H1698.61V448.918H1686.08ZM1623.34 486.547H1635.87V474.026H1623.34V486.547ZM1635.87 473.992H1648.41V461.472H1635.87V473.992ZM1787.06 361.818V386.892H1774.53V411.967H1762V449.562H1749.46V474.637H1736.93V512.232H1724.39V537.307H1711.83V574.902H1699.29V587.422H1724.39V576.598H1742.33V594.514H1724.43V612.497H1674.22V562.347H1686.76V524.752H1699.29V499.678H1711.83V462.083H1724.39V437.008H1736.93V399.379H1749.46V374.304H1736.93V361.784H1787.13L1787.06 361.818Z" fill="white"/>
<path d="M621.394 331.45L680.429 479.76C682.535 485.02 682.535 490.89 680.429 496.149L621.394 644.459C614.804 661.051 598.737 671.909 580.87 671.909H442.757V655.555H471.052C496.8 655.555 519.966 639.845 529.477 615.924L576.964 496.386H475.57L416.602 644.459C410.012 661.051 393.946 671.909 376.079 671.909H238V655.555H266.159C291.907 655.555 315.073 639.845 324.55 615.958L372.172 496.115C374.244 490.856 374.244 485.02 372.172 479.76L324.652 359.952C315.175 336.03 292.009 320.321 266.227 320.321H238V304H376.113C393.98 304 410.012 314.892 416.636 331.45L475.604 479.523H577.032L529.511 359.952C520 336.03 496.868 320.355 471.12 320.355H442.825V304H580.938C598.805 304 614.838 314.892 621.461 331.45H621.394Z" fill="white"/>
</g>
</g>
<path d="M1739.66 697.239V705.791H1697.19V735.038H1730.1V743.59H1697.19V773.209H1739.66V781.761H1688V697.239H1739.66Z" fill="white"/>
<path d="M1815.73 697.239L1791.77 737.765L1817.22 781.761H1807.04L1786.8 746.44H1785.56L1765.56 781.761H1755.26L1780.47 737.765L1756.62 697.239H1766.81L1785.56 729.338H1786.8L1805.55 697.239H1815.73Z" fill="white"/>
<path d="M1835.55 697.239H1865.48C1881.25 697.239 1890.94 704.799 1890.94 722.645V723.017C1890.94 740.863 1881.25 748.423 1865.48 748.423H1844.74V781.761H1835.55V697.239ZM1881.75 723.017V722.645C1881.75 709.756 1876.78 705.791 1865.48 705.791H1844.74V739.872H1865.48C1876.78 739.872 1881.75 735.906 1881.75 723.017Z" fill="white"/>
<path d="M1922.18 697.239V773.209H1963.16V781.761H1913V697.239H1922.18Z" fill="white"/>
<path d="M2009.81 783H2009.31C1992.92 783 1981.5 774.077 1981.5 752.761V726.239C1981.5 704.923 1992.92 696 2009.31 696H2009.81C2026.45 696 2037.63 705.047 2037.63 726.239V752.761C2037.63 773.953 2026.45 783 2009.81 783ZM2009.31 774.573H2009.81C2021.98 774.573 2028.44 768.996 2028.44 752.761V725.991C2028.44 710.004 2021.98 704.427 2009.81 704.427H2009.31C1997.02 704.427 1990.68 710.004 1990.68 725.991V752.761C1990.68 768.996 1997.02 774.573 2009.31 774.573Z" fill="white"/>
<path d="M2113.08 722.645V723.017C2113.08 739.252 2105.01 747.06 2091.6 748.299V748.919L2111.96 781.761H2101.53L2081.04 748.423H2068.62V781.761H2059.43V697.239H2087.62C2103.39 697.239 2113.08 704.799 2113.08 722.645ZM2103.89 723.017V722.645C2103.89 709.756 2098.92 705.791 2087.62 705.791H2068.62V739.872H2087.62C2098.92 739.872 2103.89 735.906 2103.89 723.017Z" fill="white"/>
<path d="M2186.42 697.239V705.791H2143.95V735.038H2176.86V743.59H2143.95V773.209H2186.42V781.761H2134.76V697.239H2186.42Z" fill="white"/>
<path d="M2262 722.645V723.017C2262 739.252 2253.93 747.06 2240.52 748.299V748.919L2260.88 781.761H2250.45L2229.96 748.423H2217.54V781.761H2208.35V697.239H2236.54C2252.31 697.239 2262 704.799 2262 722.645ZM2252.81 723.017V722.645C2252.81 709.756 2247.84 705.791 2236.54 705.791H2217.54V739.872H2236.54C2247.84 739.872 2252.81 735.906 2252.81 723.017Z" fill="white"/>
<defs>
<clipPath id="clip0_5_2">
<rect width="2024" height="392" fill="white" transform="translate(238 304)"/>
</clipPath>
<clipPath id="clip1_5_2">
<rect width="2024" height="392" fill="white" transform="translate(238 304)"/>
</clipPath>
</defs>
</svg>
