<svg width="550" height="494" viewBox="0 0 550 494" fill="none" xmlns="http://www.w3.org/2000/svg">
  <!-- Back chevrons - magenta -->
  <path d="M270.652 0H371.119C384.826 0 397.089 7.95912 401.874 19.9606L490.058 241.148C490.739 242.854 490.747 244.731 490.081 246.443L489.587 247.714L489.582 247.726L401.769 473.524C397.054 485.646 384.726 493.716 370.923 493.716H270.471C264.822 493.716 260.862 488.506 262.724 483.523L353.271 241.148L262.946 10.2988C260.989 5.29678 264.952 0 270.652 0Z" fill="#D631B9"/>
  <path d="M8.39276 0H108.86C122.567 0 134.83 7.95912 139.614 19.9606L227.799 241.148C228.479 242.854 228.487 244.731 227.822 246.443L227.327 247.714L227.322 247.726L139.509 473.524C134.795 485.646 122.467 493.716 108.664 493.716H8.2115C2.56253 493.716 -1.39662 488.506 0.465105 483.523L91.0122 241.148L0.686825 10.2988C-1.27034 5.29678 2.69291 0 8.39276 0Z" fill="#D631B9"/>
  <!-- Front chevrons - white -->
  <path d="M328.652 0H429.119C442.826 0 455.089 7.95912 459.874 19.9606L548.058 241.148C548.739 242.854 548.747 244.731 548.081 246.443L547.587 247.714L547.582 247.726L459.769 473.524C455.054 485.646 442.726 493.716 428.923 493.716H328.471C322.822 493.716 318.862 488.506 320.724 483.523L411.271 241.148L320.946 10.2988C318.989 5.29678 322.952 0 328.652 0Z" fill="white"/>
  <path d="M66.3928 0H166.86C180.567 0 192.83 7.95912 197.614 19.9606L285.799 241.148C286.479 242.854 286.487 244.731 285.822 246.443L285.327 247.714L285.322 247.726L197.509 473.524C192.795 485.646 180.467 493.716 166.664 493.716H66.2115C60.5625 493.716 56.6034 488.506 58.4651 483.523L149.012 241.148L58.6868 10.2988C56.7297 5.29678 60.6929 0 66.3928 0Z" fill="white"/>
  <!-- Center bar -->
  <path d="M401.826 194H260V301H401.826L425 245.971L401.826 194Z" fill="white"/>
</svg>
