<svg width="1000" height="1000" viewBox="0 0 1000 1000" fill="none" xmlns="http://www.w3.org/2000/svg">
<rect width="1000" height="1000" fill="#9A0DFF"/>
<g clip-path="url(#clip0_7_5556)">
<path d="M703.555 301.701L778.025 489.177C780.658 495.81 780.658 503.234 778.025 509.867L703.555 697.342C695.217 718.295 674.986 732.044 652.474 732.044H478.3V711.355H514.021C546.495 711.355 575.721 691.5 587.702 661.279L647.603 510.174H519.726L445.387 697.298C437.049 718.251 416.818 732 394.306 732H220V711.311H255.502C287.976 711.311 317.159 691.456 329.183 661.235L389.259 509.779C391.892 503.146 391.892 495.766 389.259 489.133L329.314 337.721C317.334 307.456 288.151 287.601 255.634 287.601H220V267H394.174C416.687 267 436.961 280.749 445.255 301.701L519.594 488.826H647.515L587.57 337.721C575.59 307.5 546.407 287.645 513.889 287.645H478.212V267H652.386C674.899 267 695.173 280.749 703.467 301.701H703.555Z" fill="white"/>
</g>
<defs>
<clipPath id="clip0_7_5556">
<rect width="560" height="465" fill="white" transform="translate(220 267)"/>
</clipPath>
</defs>
</svg>
