<svg width="1766" height="499" viewBox="0 80.99960327148438 1757.77001953125 337.8377990722656" fill="none" xmlns="http://www.w3.org/2000/svg"><circle cx="168.919" cy="132.638" r="51.6384" fill="black"></circle><circle cx="286.205" cy="132.638" r="46.776" stroke="black" stroke-width="9.72486"></circle><circle cx="51.6384" cy="132.638" r="51.6384" fill="black"></circle><circle cx="168.919" cy="249.92" r="51.6384" fill="black"></circle><circle cx="286.205" cy="249.92" r="51.6384" fill="black"></circle><circle cx="51.6384" cy="249.92" r="51.6384" fill="black"></circle><circle cx="168.919" cy="367.199" r="51.6384" fill="black"></circle><circle cx="286.205" cy="367.199" r="51.6384" fill="black"></circle><circle cx="51.6384" cy="367.199" r="46.776" stroke="black" stroke-width="9.72486"></circle><path d="M530.994 90.1778H593.684L699.003 389H635.895L615.834 325.474H508.008L488.365 389H426.929L530.994 90.1778ZM522.217 279.084H601.207L574.459 192.989C573.066 189.089 571.673 184.491 570.28 179.198C569.165 173.904 567.911 168.889 566.518 164.152C565.125 158.58 563.732 152.868 562.339 147.017H561.503C559.831 152.868 558.299 158.58 556.906 164.152C555.513 168.889 554.12 173.904 552.726 179.198C551.612 184.491 550.358 189.089 548.965 192.989L522.217 279.084ZM830.727 395.269C815.681 395.269 802.865 392.343 792.277 386.492C781.69 380.363 773.192 372.283 766.783 362.252H765.947V389H711.198V90.1778H768.037V200.512H769.291C775.142 191.596 782.804 184.073 792.277 177.944C801.75 171.814 814.01 168.749 829.055 168.749C842.429 168.749 854.828 171.535 866.251 177.108C877.675 182.68 887.427 190.482 895.507 200.512C903.587 210.264 909.856 222.105 914.314 236.036C919.05 249.968 921.419 265.292 921.419 282.009C921.419 299.284 919.19 315.026 914.732 329.236C910.274 343.167 904.005 355.008 895.925 364.76C888.123 374.512 878.65 382.034 867.505 387.328C856.36 392.622 844.101 395.269 830.727 395.269ZM818.189 347.625C832.956 347.625 844.24 341.913 852.042 330.489C859.843 319.066 863.744 302.906 863.744 282.009C863.744 261.948 859.704 245.788 851.624 233.529C843.822 220.991 831.981 214.722 816.099 214.722C807.184 214.722 799.521 216.533 793.113 220.155C786.983 223.498 781.968 228.235 778.068 234.365C774.167 240.216 771.241 247.321 769.291 255.679C767.619 264.038 766.783 273.233 766.783 283.263C766.783 303.045 771.381 318.787 780.575 330.489C789.77 341.913 802.308 347.625 818.189 347.625ZM1074.55 389C1072.88 386.771 1071.49 383.428 1070.37 378.97C1069.26 374.512 1068.42 369.914 1067.86 365.178H1067.03C1064.24 369.357 1061.04 373.258 1057.42 376.88C1054.07 380.223 1049.89 383.149 1044.88 385.657C1040.14 388.164 1034.43 390.114 1027.74 391.508C1021.06 393.179 1013.12 394.015 1003.92 394.015C981.91 394.015 963.939 388.443 950.008 377.298C936.077 366.153 929.111 349.854 929.111 328.4C929.111 316.698 931.34 306.806 935.798 298.726C940.256 290.646 946.386 283.959 954.187 278.666C961.989 273.372 971.044 269.332 981.353 266.546C991.94 263.481 1003.22 261.112 1015.21 259.441C1033.04 256.933 1046.13 254.286 1054.49 251.5C1062.85 248.714 1067.03 243.281 1067.03 235.201C1067.03 227.399 1063.96 221.27 1057.83 216.812C1051.98 212.075 1043.07 209.707 1031.09 209.707C1017.71 209.707 1007.68 212.214 1001 217.229C994.309 221.966 990.547 229.489 989.711 239.798H939.142C939.42 230.325 941.51 221.409 945.411 213.05C949.311 204.413 955.023 196.89 962.546 190.482C970.069 184.073 979.542 178.919 990.965 175.018C1002.39 171.118 1015.9 169.167 1031.5 169.167C1063.55 169.167 1086.53 176.133 1100.46 190.064C1114.67 203.716 1121.78 223.081 1121.78 248.157V357.237C1121.78 373.397 1124.29 383.288 1129.3 386.91V389H1074.55ZM1017.71 354.312C1025.79 354.312 1032.9 353.197 1039.03 350.968C1045.44 348.46 1050.73 345.396 1054.91 341.774C1059.37 337.873 1062.71 333.554 1064.94 328.818C1067.17 323.802 1068.28 318.648 1068.28 313.354V281.173C1063.27 284.238 1057.14 286.746 1049.89 288.696C1042.93 290.368 1035.82 292.04 1028.58 293.711C1013.53 297.055 1002.39 300.955 995.145 305.413C987.9 309.871 984.278 317.116 984.278 327.146C984.278 337.176 987.343 344.281 993.473 348.46C999.603 352.361 1007.68 354.312 1017.71 354.312ZM1249.02 395.269C1232.03 395.269 1216.7 392.343 1203.05 386.492C1189.68 380.641 1178.25 372.701 1168.78 362.67C1159.31 352.361 1151.92 340.38 1146.63 326.728C1141.61 312.797 1139.11 297.891 1139.11 282.009C1139.11 266.128 1141.61 251.361 1146.63 237.708C1151.64 223.777 1158.75 211.796 1167.94 201.766C1177.42 191.457 1188.7 183.377 1201.8 177.526C1214.89 171.675 1229.66 168.749 1246.1 168.749C1260.03 168.749 1272.57 170.7 1283.71 174.6C1294.86 178.501 1304.47 183.934 1312.55 190.9C1320.91 197.587 1327.59 205.806 1332.61 215.558C1337.9 225.031 1341.53 235.619 1343.48 247.321H1287.89C1285.94 237.848 1281.48 230.046 1274.52 223.916C1267.83 217.508 1259.19 214.304 1248.6 214.304C1231.33 214.304 1218.37 220.434 1209.74 232.693C1201.1 244.674 1196.78 261.112 1196.78 282.009C1196.78 302.349 1200.82 318.787 1208.9 331.325C1217.26 343.585 1230.22 349.714 1247.77 349.714C1259.47 349.714 1269.08 346.789 1276.61 340.938C1284.13 334.808 1288.87 325.613 1290.82 313.354H1345.57C1344.73 324.778 1341.8 335.505 1336.79 345.535C1332.05 355.287 1325.5 363.924 1317.15 371.447C1309.07 378.691 1299.17 384.542 1287.47 389C1276.05 393.179 1263.23 395.269 1249.02 395.269ZM1497.41 389V363.924H1496.15C1488.91 373.676 1480.55 381.338 1471.08 386.91C1461.88 392.204 1449.76 394.851 1434.72 394.851C1410.76 394.851 1392.37 387.886 1379.55 373.954C1366.74 360.023 1360.33 341.216 1360.33 317.533V174.6H1416.75V307.921C1416.75 320.459 1419.53 330.071 1425.11 336.758C1430.96 343.445 1440.01 346.789 1452.27 346.789C1465.65 346.789 1476.09 342.331 1483.62 333.415C1491.42 324.22 1495.32 312.518 1495.32 298.309V174.6H1552.16V389H1497.41ZM1667.49 395.269C1636.29 395.269 1612.19 388.443 1595.19 374.79C1578.2 360.859 1568.86 342.47 1567.19 319.623H1619.85C1621.8 332.161 1626.82 341.216 1634.9 346.789C1643.25 352.361 1653.84 355.147 1666.66 355.147C1679.2 355.147 1688.81 352.918 1695.5 348.46C1702.46 344.003 1705.94 338.012 1705.94 330.489C1705.94 325.474 1704.27 321.434 1700.93 318.369C1697.86 315.304 1693.68 312.797 1688.39 310.847C1683.38 308.896 1677.39 307.364 1670.42 306.249C1663.73 304.856 1656.77 303.463 1649.52 302.07C1639.77 300.12 1630.3 297.891 1621.1 295.383C1612.19 292.875 1604.11 289.253 1596.86 284.517C1589.9 279.78 1584.19 273.65 1579.73 266.128C1575.55 258.605 1573.46 248.992 1573.46 237.29C1573.46 225.588 1575.69 215.558 1580.15 207.199C1584.6 198.562 1590.73 191.457 1598.54 185.884C1606.62 180.033 1615.95 175.715 1626.54 172.929C1637.12 170.142 1648.55 168.749 1660.81 168.749C1689.23 168.749 1711.1 175.158 1726.42 187.974C1741.75 200.791 1750.52 218.065 1752.75 239.798H1701.35C1699.95 228.096 1695.77 220.016 1688.81 215.558C1681.84 210.821 1672.23 208.453 1659.97 208.453C1648.83 208.453 1639.91 210.543 1633.22 214.722C1626.54 218.623 1623.19 224.474 1623.19 232.275C1623.19 237.012 1624.87 240.773 1628.21 243.559C1631.55 246.067 1635.87 248.296 1641.16 250.246C1646.74 251.918 1653.01 253.311 1659.97 254.426C1667.22 255.54 1674.6 256.933 1682.12 258.605C1691.04 260.555 1699.95 262.784 1708.87 265.292C1718.06 267.799 1726.28 271.561 1733.53 276.576C1740.77 281.313 1746.62 287.721 1751.08 295.801C1755.54 303.602 1757.77 313.772 1757.77 326.31C1757.77 337.176 1755.54 346.928 1751.08 355.565C1746.62 363.924 1740.35 371.029 1732.27 376.88C1724.47 382.731 1715 387.189 1703.85 390.254C1692.99 393.597 1680.87 395.269 1667.49 395.269Z" fill="black"></path></svg>