<?xml version="1.0" standalone="no"?>
<!DOCTYPE svg PUBLIC "-//W3C//DTD SVG 20010904//EN"
 "http://www.w3.org/TR/2001/REC-SVG-20010904/DTD/svg10.dtd">
<svg version="1.0" xmlns="http://www.w3.org/2000/svg"
 width="501.000000pt" height="501.000000pt" viewBox="0 0 501.000000 501.000000"
 preserveAspectRatio="xMidYMid meet">
<metadata>
Created by potrace 1.14, written by Peter Selinger 2001-2017
</metadata>
<g transform="translate(0.000000,501.000000) scale(0.100000,-0.100000)"
fill="#000000" stroke="none">
<path d="M669 5006 c-2 -2 -17 -7 -34 -10 -68 -12 -89 -18 -151 -42 -282 -114
-473 -391 -476 -694 -1 -100 2 -130 26 -222 40 -149 141 -298 271 -398 52 -40
185 -115 185 -104 0 4 6 2 13 -4 6 -5 44 -18 82 -27 116 -30 319 -24 415 12 8
3 20 7 25 8 23 6 133 62 175 89 66 44 171 153 216 226 21 35 39 66 39 69 1 3
6 15 12 26 19 37 52 149 59 205 7 61 8 206 0 218 -2 4 -7 26 -11 50 -8 59 -61
187 -104 252 -33 51 -170 200 -184 200 -3 0 -23 12 -44 26 -44 30 -128 74
-152 79 -9 2 -41 11 -71 20 -49 15 -280 31 -291 21z"/>
<path d="M2350 4994 c-290 -62 -520 -289 -592 -582 -16 -67 -18 -258 -2 -309
6 -24 10 -43 9 -43 -7 0 33 -107 60 -160 52 -102 127 -193 212 -256 21 -16 40
-31 43 -34 3 -3 19 -12 35 -21 17 -8 39 -20 50 -26 161 -89 413 -105 586 -38
20 8 39 11 43 8 3 -4 6 -1 6 5 0 7 7 12 15 12 14 0 130 67 161 93 195 163 296
379 289 617 -3 112 -6 136 -32 215 -79 249 -291 450 -538 511 -16 4 -37 9 -45
11 -44 12 -241 10 -300 -3z"/>
<path d="M4065 4989 c-155 -38 -312 -135 -411 -255 -45 -54 -114 -168 -114
-188 0 -6 -4 -16 -9 -21 -18 -19 -52 -181 -54 -260 -1 -11 2 -56 6 -101 22
-250 183 -483 413 -597 67 -34 139 -60 199 -73 39 -8 247 -13 260 -5 5 3 16 6
25 7 43 5 84 17 146 42 211 86 368 256 442 477 25 75 34 129 34 225 1 105 -7
157 -37 246 -126 374 -520 594 -900 503z m321 -234 c144 -42 258 -135 324
-265 36 -73 37 -74 44 -105 14 -64 16 -82 16 -135 1 -81 -6 -118 -31 -185
-131 -352 -569 -462 -852 -214 -108 95 -175 246 -175 393 0 149 52 273 157
376 139 137 335 188 517 135z"/>
<path d="M717 3274 c-1 -1 -27 -5 -57 -9 -94 -11 -226 -61 -315 -120 -176
-116 -305 -322 -332 -530 -48 -365 166 -711 515 -829 39 -14 95 -27 124 -31
70 -8 177 -13 183 -7 2 2 21 6 42 8 42 4 49 5 113 23 56 16 174 70 178 82 2 5
8 9 14 9 13 0 88 61 132 106 101 103 169 228 202 372 15 63 22 261 10 281 -3
4 -8 21 -10 37 -11 58 -14 70 -32 114 -68 172 -191 314 -347 399 -54 30 -120
58 -157 66 -60 14 -107 23 -120 24 -53 3 -142 6 -143 5z"/>
<path d="M2412 3269 c-282 -35 -533 -239 -629 -512 -31 -88 -32 -97 -37 -222
-5 -104 3 -165 30 -250 16 -51 72 -176 83 -185 3 -3 19 -24 34 -46 32 -47 140
-154 156 -154 5 0 14 -6 18 -13 21 -35 222 -118 323 -133 43 -7 166 -7 220 0
209 25 419 161 541 349 36 55 84 165 95 218 2 13 9 44 14 69 9 47 7 251 -3
267 -4 5 -9 23 -11 40 -3 17 -19 62 -35 101 -128 316 -461 512 -799 471z"/>
<path d="M4188 3274 c-2 -1 -25 -5 -53 -8 -339 -44 -619 -331 -652 -671 -8
-76 -8 -92 0 -175 8 -79 15 -106 48 -188 152 -381 562 -573 953 -446 230 74
422 276 491 514 102 356 -78 752 -410 900 -28 13 -57 26 -67 31 -41 20 -296
56 -310 43z"/>
<path d="M648 1529 c-90 -14 -261 -82 -296 -116 -7 -7 -17 -13 -22 -13 -11 0
-148 -135 -182 -180 -35 -45 -82 -141 -103 -211 -9 -30 -19 -61 -22 -69 -9
-24 -15 -90 -16 -165 0 -149 30 -259 107 -389 106 -181 295 -316 503 -361 68
-14 229 -14 303 0 135 26 284 107 385 210 88 90 88 90 140 188 57 108 87 232
86 351 0 93 -2 103 -22 191 -17 74 -80 202 -132 271 -44 57 -74 88 -157 156
-39 32 -182 103 -230 114 -19 4 -39 9 -45 10 -5 2 -21 6 -35 9 -39 10 -210 13
-262 4z m246 -240 c55 -13 139 -48 144 -61 2 -4 9 -8 16 -8 7 0 40 -26 74 -57
83 -79 129 -156 159 -273 26 -98 7 -250 -45 -353 -139 -280 -498 -378 -759
-208 -53 35 -153 130 -153 146 0 4 -8 19 -19 33 -23 34 -61 136 -67 182 -5 41
-5 138 0 166 10 52 30 112 54 162 27 57 133 173 187 205 128 76 270 99 409 66z"/>
<path d="M2417 1533 c-3 -2 -24 -6 -48 -8 -146 -15 -341 -130 -454 -268 -76
-92 -142 -232 -162 -340 -4 -23 -7 -96 -6 -162 1 -106 5 -131 32 -215 17 -52
40 -107 51 -122 11 -15 20 -30 20 -33 0 -16 68 -103 119 -153 67 -66 162 -129
251 -166 101 -41 154 -51 285 -50 115 0 164 5 171 16 3 5 9 6 14 3 14 -8 161
56 232 101 84 54 162 132 220 220 41 64 85 154 93 193 2 9 10 44 18 78 21 88
15 256 -12 351 -45 156 -131 285 -267 400 -51 43 -201 116 -284 138 -59 15
-262 28 -273 17z"/>
<path d="M4090 1523 c-36 -7 -72 -16 -80 -20 -8 -3 -18 -6 -21 -5 -12 2 -175
-85 -204 -109 -145 -122 -226 -238 -274 -392 -37 -120 -41 -217 -19 -387 1 -3
11 -34 23 -70 43 -127 93 -208 185 -301 158 -160 349 -234 574 -225 652 28
968 804 521 1284 -102 110 -273 205 -413 228 -64 11 -232 10 -292 -3z"/>
</g>
</svg>
