<?xml version="1.0" standalone="no"?>
<!DOCTYPE svg PUBLIC "-//W3C//DTD SVG 20010904//EN"
 "http://www.w3.org/TR/2001/REC-SVG-20010904/DTD/svg10.dtd">
<svg version="1.0" xmlns="http://www.w3.org/2000/svg"
 width="648.000000pt" height="648.000000pt" viewBox="0 0 648.000000 648.000000"
 preserveAspectRatio="xMidYMid meet">
<metadata>
Created by potrace 1.14, written by Peter Selinger 2001-2017
</metadata>
<g transform="translate(0.000000,648.000000) scale(0.100000,-0.100000)"
fill="#000000" stroke="none">
<path d="M315 6461 c-52 -22 -81 -92 -60 -146 4 -11 23 -63 42 -115 19 -52 41
-110 49 -128 8 -18 14 -37 14 -43 0 -6 6 -25 14 -42 15 -32 159 -428 280 -767
9 -25 19 -52 23 -60 3 -8 7 -19 9 -25 1 -5 23 -66 49 -135 25 -69 53 -145 62
-170 8 -25 19 -49 24 -54 5 -6 9 -20 9 -31 0 -12 3 -25 7 -29 4 -3 8 -12 9
-19 2 -7 19 -55 39 -107 20 -52 51 -138 69 -192 19 -53 39 -105 45 -117 7 -12
9 -21 6 -21 -3 0 1 -12 8 -27 8 -16 24 -57 36 -93 12 -36 26 -74 32 -85 5 -11
25 -65 44 -120 20 -55 38 -107 42 -115 3 -8 7 -19 9 -25 1 -5 16 -46 32 -90
16 -44 55 -149 86 -234 l57 -155 -20 -55 c-109 -316 -152 -438 -158 -451 -3
-8 -7 -20 -9 -27 -1 -6 -16 -49 -32 -95 -29 -78 -52 -144 -152 -433 -23 -66
-54 -156 -70 -200 -15 -44 -54 -154 -85 -245 -97 -280 -126 -364 -132 -380 -4
-8 -7 -17 -8 -20 -1 -3 -5 -12 -8 -20 -3 -8 -20 -55 -36 -105 -16 -49 -53
-155 -81 -235 -28 -80 -53 -149 -54 -155 -2 -5 -9 -23 -15 -40 -7 -16 -14 -37
-16 -45 -2 -8 -31 -94 -65 -190 -34 -96 -81 -231 -105 -300 -23 -69 -47 -136
-53 -150 -8 -22 -9 -35 -3 -87 0 -6 15 -25 31 -42 l31 -30 657 -1 c689 0 706
1 792 45 58 29 120 85 155 139 18 28 57 116 85 196 29 80 56 154 60 165 4 11
13 34 19 50 6 17 16 44 22 60 7 17 13 35 15 40 3 14 80 225 109 300 13 33 30
83 39 110 9 28 21 59 26 70 5 11 22 58 39 105 16 47 45 128 64 180 20 52 54
147 77 210 22 63 44 122 47 130 3 8 7 20 9 25 3 13 150 416 218 600 l52 140
748 3 747 2 -6 -22 c-3 -13 -12 -39 -20 -58 -21 -53 -106 -298 -109 -312 -2
-7 -8 -24 -13 -38 -6 -14 -36 -99 -67 -190 -32 -91 -68 -194 -81 -230 -20 -56
-35 -100 -40 -120 -1 -3 -6 -16 -12 -30 -6 -14 -29 -79 -51 -145 -23 -66 -62
-178 -87 -250 -90 -255 -127 -360 -129 -370 -2 -5 -6 -19 -10 -30 -32 -85 -38
-100 -36 -100 1 0 -3 -11 -8 -25 -17 -44 -83 -234 -87 -250 -5 -18 -33 -99
-42 -120 -3 -8 -7 -17 -8 -20 0 -3 -11 -35 -23 -71 -31 -92 -20 -144 38 -174
26 -14 113 -15 668 -15 350 0 648 2 662 4 119 14 249 105 304 213 20 41 66
165 266 713 15 41 78 215 139 385 62 171 117 319 122 330 5 11 23 61 40 110
37 104 35 98 129 355 40 107 85 231 100 275 16 44 34 94 41 110 7 17 13 35 15
40 2 11 38 112 59 165 7 19 22 60 33 90 11 30 24 64 28 75 4 11 8 22 9 25 7
30 30 88 38 98 5 6 6 12 3 12 -4 0 -2 9 5 21 6 12 29 73 50 136 l40 114 -20
57 c-20 56 -45 125 -97 260 -14 37 -34 90 -43 117 -27 72 -199 534 -215 575
-17 44 -61 160 -116 310 -23 63 -46 124 -51 135 -5 11 -19 49 -32 85 -28 76
-285 766 -297 795 -4 11 -18 47 -30 80 -12 33 -26 69 -31 80 -13 30 -100 268
-104 285 -12 46 -85 206 -112 244 -35 50 -116 113 -183 141 -43 19 -78 20
-710 23 -366 1 -674 1 -686 -2 -47 -12 -83 -65 -79 -116 2 -20 81 -247 112
-320 3 -8 7 -19 9 -25 1 -5 12 -35 24 -65 12 -30 25 -66 30 -80 20 -62 91
-257 99 -275 10 -20 28 -70 81 -220 15 -44 37 -104 49 -132 11 -29 18 -53 15
-53 -3 0 1 -12 10 -27 15 -30 29 -65 102 -268 25 -71 60 -166 76 -210 17 -44
47 -127 68 -185 20 -58 44 -122 53 -143 9 -20 16 -38 16 -40 -1 -5 81 -235
101 -283 8 -21 6 -22 -46 -23 -30 0 -59 -3 -64 -6 -6 -3 -10 -3 -10 2 0 10
-85 7 -101 -3 -7 -4 -10 -3 -6 2 3 5 -24 7 -65 4 -38 -3 -71 -3 -74 -1 -6 6
-215 2 -225 -5 -5 -3 -9 -2 -9 3 0 10 -85 7 -101 -3 -7 -4 -10 -3 -6 2 3 5
-24 7 -65 4 -38 -3 -71 -3 -74 -1 -6 6 -215 2 -225 -5 -5 -3 -9 -2 -9 3 0 10
-85 7 -101 -3 -7 -4 -10 -3 -6 2 3 5 -24 7 -65 4 -38 -3 -71 -3 -74 -1 -2 2
-44 4 -94 3 -60 -2 -90 2 -90 9 0 6 -6 25 -14 42 -13 30 -26 66 -77 205 -12
31 -26 68 -31 82 -22 52 -27 66 -33 90 -4 14 -13 39 -20 55 -18 43 -43 108
-77 204 -16 46 -34 95 -40 110 -6 14 -12 28 -13 31 -1 3 -5 12 -8 20 -3 8 -16
42 -28 75 -12 33 -69 186 -126 340 -130 345 -164 437 -167 450 -1 6 -10 27
-19 49 -9 21 -17 41 -17 44 0 5 -70 192 -133 357 -57 149 -120 219 -247 276
l-55 24 -670 2 c-369 1 -679 -2 -690 -6z"/>
</g>
</svg>
