<svg viewBox="0 81 1757.8 337.8" fill="none" xmlns="http://www.w3.org/2000/svg"><circle cx="168.9" cy="132.6" r="51.6" fill="#000"/><circle cx="286.2" cy="132.6" r="46.8" stroke="#000" stroke-width="9.7"/><circle cx="51.6" cy="132.6" r="51.6" fill="#000"/><circle cx="168.9" cy="249.9" r="51.6" fill="#000"/><circle cx="286.2" cy="249.9" r="51.6" fill="#000"/><circle cx="51.6" cy="249.9" r="51.6" fill="#000"/><circle cx="168.9" cy="367.2" r="51.6" fill="#000"/><circle cx="286.2" cy="367.2" r="51.6" fill="#000"/><circle cx="51.6" cy="367.2" r="46.8" stroke="#000" stroke-width="9.7"/><path d="M531 90.2h62.7L699 389h-63.1l-20-63.5H508L488.4 389h-61.5L531 90.2ZM522.2 279h79L574.5 193c-1.4-4-2.8-8.5-4.2-13.8a1568.3 1568.3 0 0 1-8-32.2h-.8a532 532 0 0 0-4.6 17.2l-4.2 15c-1 5.3-2.3 9.9-3.7 13.8l-26.8 86Zm308.5 116.2c-15 0-27.8-3-38.4-8.8a73.4 73.4 0 0 1-25.5-24.2h-.9V389h-54.7V90.2H768v110.3h1.3c5.8-8.9 13.5-16.4 23-22.6a66.6 66.6 0 0 1 36.8-9.2 83.7 83.7 0 0 1 66.4 31.8c8 9.8 14.4 21.6 18.8 35.5a142 142 0 0 1 7.1 46c0 17.3-2.2 33-6.7 47.2-4.4 14-10.7 25.8-18.8 35.6a79.9 79.9 0 0 1-28.4 22.5 84.6 84.6 0 0 1-36.8 8Zm-12.5-47.7c14.8 0 26-5.7 33.8-17.1 7.8-11.4 11.7-27.6 11.7-48.5 0-20-4-36.2-12-48.5a39 39 0 0 0-35.6-18.8 46 46 0 0 0-23 5.5c-6.1 3.3-11.1 8-15 14.2-4 5.8-6.9 13-8.8 21.3-1.7 8.3-2.5 17.5-2.5 27.6 0 19.7 4.6 35.5 13.8 47.2a45.7 45.7 0 0 0 37.6 17.1Zm256.3 41.4c-1.6-2.2-3-5.6-4.1-10-1.1-4.5-2-9-2.5-13.8h-.9a77 77 0 0 1-9.6 11.7 48 48 0 0 1-12.5 8.8 99.1 99.1 0 0 1-41 8.4c-22 0-40-5.7-53.9-16.8-14-11.1-20.9-27.4-20.9-48.9 0-11.7 2.2-21.6 6.7-29.7 4.5-8 10.6-14.7 18.4-20a89.6 89.6 0 0 1 27.2-12.2c10.5-3 21.8-5.4 33.8-7 17.8-2.6 31-5.2 39.3-8 8.3-2.8 12.5-8.2 12.5-16.3 0-7.8-3-14-9.2-18.4-5.8-4.7-14.7-7-26.7-7-13.4 0-23.4 2.4-30.1 7.4-6.7 4.8-10.5 12.3-11.3 22.6h-50.6a67.2 67.2 0 0 1 23.4-49.3c7.6-6.4 17-11.6 28.5-15.5 11.4-3.9 24.9-5.8 40.5-5.8 32 0 55 7 69 20.9 14.2 13.6 21.3 33 21.3 58v109.1c0 16.2 2.5 26 7.5 29.7v2.1h-54.8Zm-56.8-34.7a54.1 54.1 0 0 0 37.2-12.5c4.5-4 7.8-8.2 10-13 2.3-5 3.4-10.2 3.4-15.4v-32.2a70 70 0 0 1-18.4 7.5l-21.3 5c-15 3.4-26.2 7.3-33.5 11.7-7.2 4.5-10.8 11.7-10.8 21.7s3 17.2 9.2 21.4a44.6 44.6 0 0 0 24.2 5.8Zm231.3 41c-17 0-32.3-3-46-8.8a103.7 103.7 0 0 1-34.2-23.8A112.8 112.8 0 0 1 1139 282c0-15.9 2.5-30.6 7.5-44.3a102 102 0 0 1 99.5-69c14 0 26.5 2 37.6 5.9a88.3 88.3 0 0 1 49 41c5.2 9.4 8.8 20 10.8 31.7h-55.6c-2-9.5-6.4-17.3-13.4-23.4a36 36 0 0 0-25.9-9.6c-17.3 0-30.2 6.1-38.9 18.4-8.6 12-13 28.4-13 49.3 0 20.3 4.1 36.8 12.2 49.3 8.4 12.3 21.3 18.4 38.9 18.4 11.7 0 21.3-3 28.8-8.8a42.6 42.6 0 0 0 14.2-27.5h54.8a85.3 85.3 0 0 1-28.4 58c-8.1 7.3-18 13.1-29.7 17.6a111.3 111.3 0 0 1-38.5 6.3Zm248.4-6.3v-25h-1.3a84.9 84.9 0 0 1-25 23c-9.2 5.2-21.3 7.9-36.4 7.9-24 0-42.3-7-55.2-21-12.8-13.9-19.2-32.7-19.2-56.4V174.6h56.5v133.3c0 12.6 2.7 22.2 8.3 28.9 5.9 6.6 15 10 27.2 10 13.4 0 23.8-4.5 31.3-13.4a52.4 52.4 0 0 0 11.7-35V174.5h56.9V389h-54.8Zm170 6.3c-31.1 0-55.2-6.9-72.2-20.5a75.4 75.4 0 0 1-28-55.2h52.6c2 12.6 7 21.6 15.1 27.2a56 56 0 0 0 31.8 8.3 52 52 0 0 0 28.8-6.6c7-4.5 10.4-10.5 10.4-18 0-5-1.6-9-5-12.1-3-3.1-7.2-5.6-12.5-7.6-5-1.9-11-3.4-18-4.6l-20.9-4.1c-9.7-2-19.2-4.2-28.4-6.7-9-2.5-17-6.1-24.2-10.9a57.2 57.2 0 0 1-17.2-18.4 59 59 0 0 1-6.2-28.8c0-11.7 2.2-21.7 6.7-30.1a59 59 0 0 1 18.3-21.3c8.1-5.9 17.5-10.2 28-13 10.6-2.8 22-4.2 34.3-4.2 28.4 0 50.3 6.5 65.6 19.3a74.6 74.6 0 0 1 26.3 51.8h-51.4c-1.3-11.7-5.5-19.8-12.5-24.2-7-4.8-16.6-7.1-28.8-7.1a50 50 0 0 0-26.8 6.2 19 19 0 0 0-10 17.6 14 14 0 0 0 5 11.3c3.3 2.5 7.7 4.7 13 6.6 5.5 1.7 11.8 3.1 18.8 4.2a468.2 468.2 0 0 1 48.9 10.9 80 80 0 0 1 24.6 11.3c7.3 4.7 13.1 11.1 17.6 19.2 4.4 7.8 6.7 18 6.7 30.5 0 10.9-2.3 20.6-6.7 29.3a62.4 62.4 0 0 1-18.8 21.3 83.9 83.9 0 0 1-28.5 13.4c-10.8 3.3-23 5-36.3 5Z" fill="#000"/></svg>