<svg xmlns="http://www.w3.org/2000/svg" fill="none" viewBox="2.64 13.68 182.04 42.38"><path fill="#D631B9" d="M2.64 48V13.68h25.25v5.86H9.6v7.68h16.03v5.7H9.6v9.27h18.43V48H2.64Zm27.46 0 8.98-13.06-8.02-11.56h7.44l4.37 7.05h.1l4.12-7.05h6.77L46.23 34.9 55.01 48h-7.77l-4.56-8.16h-.1L37.25 48H30.1Zm27.42 8.06V23.38h6.29v3.07h.14a8.55 8.55 0 0 1 7.25-3.75 9.5 9.5 0 0 1 7.77 3.6c1.96 2.4 2.93 5.54 2.93 9.41 0 3.97-.97 7.14-2.93 9.5a9.57 9.57 0 0 1-7.72 3.51c-3.2 0-5.57-1.17-7.1-3.5h-.1v10.84h-6.53ZM69.85 43.3c1.67 0 2.98-.66 3.94-1.97 1-1.31 1.49-3.12 1.49-5.43 0-2.46-.47-4.4-1.4-5.8-.92-1.41-2.35-2.12-4.27-2.12-1.95 0-3.39.74-4.32 2.21-.92 1.44-1.39 3.35-1.39 5.71 0 2.28.51 4.08 1.54 5.43a5.27 5.27 0 0 0 4.41 1.97ZM85.04 48V13.68h6.52V48h-6.52Zm31.75-2.98c-2.4 2.47-5.49 3.7-9.26 3.7-3.78 0-6.87-1.23-9.27-3.7a12.9 12.9 0 0 1-3.6-9.3c0-3.72 1.2-6.8 3.6-9.27 2.4-2.5 5.49-3.75 9.27-3.75 3.77 0 6.86 1.25 9.26 3.75 2.4 2.46 3.6 5.55 3.6 9.26s-1.2 6.82-3.6 9.31Zm-9.26-1.3c1.95 0 3.47-.71 4.56-2.15 1.12-1.47 1.68-3.43 1.68-5.86s-.56-4.38-1.68-5.85a5.35 5.35 0 0 0-4.56-2.21 5.4 5.4 0 0 0-4.61 2.2c-1.09 1.45-1.63 3.4-1.63 5.86 0 2.43.54 4.39 1.63 5.86a5.44 5.44 0 0 0 4.6 2.16Zm22.18-20.34v3.93h.15a9.12 9.12 0 0 1 2.54-3.17c.93-.7 2.1-1.05 3.5-1.05.68 0 1.19.06 1.54.19v5.71h-.14c-2.21-.22-3.99.26-5.33 1.44-1.34 1.19-2.02 3.04-2.02 5.57v12h-6.52V23.38h6.28Zm21.4 25.34c-3.96 0-7.08-1.22-9.35-3.65-2.27-2.46-3.41-5.6-3.41-9.4 0-3.69 1.14-6.76 3.4-9.22a11.28 11.28 0 0 1 8.74-3.75c3.88 0 6.87 1.35 8.98 4.04 2.11 2.68 3.17 6.28 3.17 10.8h-17.86a7.8 7.8 0 0 0 1.97 4.56 5.84 5.84 0 0 0 4.32 1.58c2.4 0 3.98-1 4.75-3.02h6.43a9.67 9.67 0 0 1-3.64 5.76c-1.96 1.53-4.45 2.3-7.5 2.3Zm-.52-20.98c-3.17 0-5.07 1.76-5.71 5.28h10.94a5.64 5.64 0 0 0-1.58-3.79 4.86 4.86 0 0 0-3.65-1.49Zm21.36-4.36v3.93h.14a9.12 9.12 0 0 1 2.54-3.17c.93-.7 2.1-1.05 3.5-1.05.68 0 1.2.06 1.55.19v5.71h-.15c-2.2-.22-3.98.26-5.33 1.44-1.34 1.19-2.01 3.04-2.01 5.57v12h-6.53V23.38h6.29Z"/><path fill="#fff" d="M7.64 48V13.68h25.25v5.86H14.6v7.68h16.03v5.7H14.6v9.27h18.43V48H7.64Zm27.46 0 8.98-13.06-8.02-11.56h7.44l4.37 7.05h.1l4.12-7.05h6.77L51.23 34.9 60.01 48h-7.77l-4.56-8.16h-.1L42.25 48H35.1Zm27.42 8.06V23.38h6.29v3.07h.14a8.55 8.55 0 0 1 7.25-3.75 9.5 9.5 0 0 1 7.77 3.6c1.96 2.4 2.93 5.54 2.93 9.41 0 3.97-.97 7.14-2.93 9.5a9.57 9.57 0 0 1-7.72 3.51c-3.2 0-5.57-1.17-7.1-3.5h-.1v10.84h-6.53ZM74.85 43.3c1.67 0 2.98-.66 3.94-1.97 1-1.31 1.49-3.12 1.49-5.43 0-2.46-.47-4.4-1.4-5.8-.92-1.41-2.35-2.12-4.27-2.12-1.95 0-3.39.74-4.32 2.21-.92 1.44-1.39 3.35-1.39 5.71 0 2.28.51 4.08 1.54 5.43a5.27 5.27 0 0 0 4.41 1.97ZM90.04 48V13.68h6.52V48h-6.52Zm31.75-2.98c-2.4 2.47-5.49 3.7-9.26 3.7-3.78 0-6.87-1.23-9.27-3.7a12.9 12.9 0 0 1-3.6-9.3c0-3.72 1.2-6.8 3.6-9.27 2.4-2.5 5.49-3.75 9.27-3.75 3.77 0 6.86 1.25 9.26 3.75 2.4 2.46 3.6 5.55 3.6 9.26s-1.2 6.82-3.6 9.31Zm-9.26-1.3c1.95 0 3.47-.71 4.56-2.15 1.12-1.47 1.68-3.43 1.68-5.86s-.56-4.38-1.68-5.85a5.35 5.35 0 0 0-4.56-2.21 5.4 5.4 0 0 0-4.61 2.2c-1.09 1.45-1.63 3.4-1.63 5.86 0 2.43.54 4.39 1.63 5.86a5.44 5.44 0 0 0 4.6 2.16Zm22.18-20.34v3.93h.15a9.12 9.12 0 0 1 2.54-3.17c.93-.7 2.1-1.05 3.5-1.05.68 0 1.19.06 1.54.19v5.71h-.14c-2.21-.22-3.99.26-5.33 1.44-1.34 1.19-2.02 3.04-2.02 5.57v12h-6.52V23.38h6.28Zm21.4 25.34c-3.96 0-7.08-1.22-9.35-3.65-2.27-2.46-3.41-5.6-3.41-9.4 0-3.69 1.14-6.76 3.4-9.22a11.28 11.28 0 0 1 8.74-3.75c3.88 0 6.87 1.35 8.98 4.04 2.11 2.68 3.17 6.28 3.17 10.8h-17.86a7.8 7.8 0 0 0 1.97 4.56 5.84 5.84 0 0 0 4.32 1.58c2.4 0 3.98-1 4.75-3.02h6.43a9.67 9.67 0 0 1-3.64 5.76c-1.96 1.53-4.45 2.3-7.5 2.3Zm-.52-20.98c-3.17 0-5.07 1.76-5.71 5.28h10.94a5.64 5.64 0 0 0-1.58-3.79 4.86 4.86 0 0 0-3.65-1.49Zm21.36-4.36v3.93h.14a9.12 9.12 0 0 1 2.54-3.17c.93-.7 2.1-1.05 3.5-1.05.68 0 1.2.06 1.55.19v5.71h-.15c-2.2-.22-3.98.26-5.33 1.44-1.34 1.19-2.01 3.04-2.01 5.57v12h-6.53V23.38h6.29Z"/></svg>