<svg xmlns="http://www.w3.org/2000/svg" viewBox="0 0 16 16" fill="#1a0a28"><path d="M11 5c0 1.7-1.3 3-3 3S5 6.7 5 5s1.3-3 3-3 3 1.3 3 3zM8 7c1.1 0 2-.9 2-2s-.9-2-2-2-2 .9-2 2 .9 2 2 2zm.3 7c-.1-.3-.2-.7-.2-1H3c0-.2.2-1 .8-1.7.7-.6 1.9-1.3 4.2-1.3h.7c.3-.3.5-.6.8-.9C9.1 9 8.6 9 8 9c-5 0-6 3-6 4s1 1 1 1h5.3z"/><path d="M12.5 9C10.6 9 9 10.6 9 12.5s1.6 3.5 3.5 3.5 3.5-1.6 3.5-3.5S14.4 9 12.5 9zm1.5 4c.1 0 .1.1.1.2l-.1.3c0 .1-.1 0-.2 0-.2-.1-.8-.5-1.1-.8.1.5.1 1 .1 1.3 0 .1 0 .2-.1.2h-.3c-.1 0-.1-.1-.1-.2 0-.3 0-.9.1-1.3-.3.3-.9.6-1.1.8-.1 0-.2.1-.2 0l-.2-.3c0-.1 0-.1.1-.2.3-.1.8-.4 1.2-.6-.4-.1-1-.5-1.2-.6-.1 0-.1-.1-.1-.2l.2-.3c0-.1.1 0 .2 0 .3.1.7.5 1.1.8-.1-.4-.1-1.1-.1-1.3 0-.1 0-.2.1-.2h.4c.1 0 .1.1.1.2 0 .3 0 .9-.1 1.3.4-.3.8-.6 1.1-.8.1 0 .2-.1.2 0l.2.3c0 .1 0 .1-.1.2l-1.2.6c.3.2.8.4 1 .6z"/></svg>