<svg xmlns="http://www.w3.org/2000/svg" viewBox="0 0 16 16" fill="#1a0a28"><path d="M2 2a2 2 0 0 0-2 2v8c0 1.1.9 2 2 2h5.5c.3 0 .5-.2.5-.5s-.2-.5-.5-.5H2c-.5 0-.8-.3-1-.7l5.6-3.5 1.4.8 7-4.2v3.1c0 .3.2.5.5.5s.5-.2.5-.5V4a2 2 0 0 0-2-2H2zm3.7 6.2L1 11.1V5.4l4.7 2.8zM1 4.2V4c0-.6.4-1 1-1h12c.6 0 1 .4 1 1v.2L8 8.4 1 4.2z"/><path d="M12.5 9C10.6 9 9 10.6 9 12.5s1.6 3.5 3.5 3.5 3.5-1.6 3.5-3.5S14.4 9 12.5 9zm-.5 5v-1.5c0-.3.2-.5.5-.5s.5.2.5.5V14c0 .3-.2.5-.5.5s-.5-.2-.5-.5zm0-3c0-.3.2-.5.5-.5s.5.2.5.5-.2.5-.5.5-.5-.2-.5-.5z"/></svg>