<svg xmlns="http://www.w3.org/2000/svg" viewBox="0 0 500 500"><path d="m329.2 417.71 44.78-44.77 44.13 44.12 14.92-14.92-44.77-44.78 46.07-46.07-14.93-14.93-45.42 45.43-45.43-45.43-14.92 14.93 45.42 45.42-45.42 45.43 15.57 15.57ZM4.08 428.1V12.77l430.9 181.7h-38.29c-10.38 0-20.23.22-29.53.66-9.3.43-17.4 1.3-24.33 2.6L43.02 71.17V180.2l157.04 40.24-157.04 38.93v108.38l183-76.58c-3.46 7.35-6.38 15.9-8.76 25.63-2.38 9.74-4 17.63-4.87 23.69L4.1 428.09ZM373.98 480c-33.75 0-62.73-12-86.96-36.01-24.23-24.02-36.34-52.9-36.34-86.64 0-34.18 12.11-63.38 36.34-87.6 24.23-24.23 53.21-36.35 86.96-36.35 33.74 0 62.73 12.12 86.96 36.34 24.22 24.23 36.34 53.43 36.34 87.61 0 33.75-12.12 62.62-36.34 86.63-24.23 24.01-53.22 36.02-86.96 36.02ZM43.02 291.17v-220 296.57-76.57Z" fill="#6b7280"/><circle cx="372.66" cy="356.61" r="103.81" fill="#6b7280"/><text x="315.07" y="428.61" style="fill:#fff;font-family:Arial,sans-serif;font-size:211.5px;white-space:pre">?</text></svg>